<?xml version="1.0" encoding="UTF-8"?>
<svg id="Layer_1" xmlns="http://www.w3.org/2000/svg" version="1.1" viewBox="0 0 1683.41 392.45">
  <!-- Generator: Adobe Illustrator 29.7.1, SVG Export Plug-In . SVG Version: 2.1.1 Build 8)  -->
  <defs>
    <style>
      .st0 {
        fill: #231f20;
      }

      .st1 {
        fill: #fff;
        stroke: #231f20;
        stroke-miterlimit: 10;
        stroke-width: 11px;
      }
    </style>
  </defs>
  <rect class="st1" x="81.05" y="39.8" width="218.94" height="218.94" rx="39.86" ry="39.86"/>
  <polygon class="st1" points="81.05 39.8 46.61 85.17 46.61 339.06 81.05 258.74 81.05 39.8"/>
  <polygon class="st1" points="299.99 39.8 334.43 85.17 334.43 339.06 299.99 258.74 299.99 39.8"/>
  <polygon class="st1" points="81.05 258.74 299.99 258.74 334.43 339.06 46.61 339.06 81.05 258.74"/>
  <rect class="st1" x="406.86" y="39.8" width="218.94" height="218.94" rx="36.85" ry="36.85"/>
  <polygon class="st1" points="406.86 39.8 372.42 85.17 372.42 339.06 406.86 258.74 406.86 39.8"/>
  <polygon class="st1" points="625.79 39.8 660.23 85.17 660.23 339.06 625.79 258.74 625.79 39.8"/>
  <polygon class="st1" points="406.86 258.74 625.79 258.74 660.23 339.06 372.42 339.06 406.86 258.74"/>
  <rect class="st1" x="732.66" y="39.8" width="218.94" height="218.94" rx="31.55" ry="31.55"/>
  <polygon class="st1" points="732.66 39.8 698.22 85.17 698.22 339.06 732.66 258.74 732.66 39.8"/>
  <polygon class="st1" points="951.6 39.8 986.04 85.17 986.04 339.06 951.6 258.74 951.6 39.8"/>
  <polygon class="st1" points="732.66 258.74 951.6 258.74 986.04 339.06 698.22 339.06 732.66 258.74"/>
  <rect class="st1" x="1058.47" y="39.8" width="218.94" height="218.94" rx="27.73" ry="27.73"/>
  <polygon class="st1" points="1058.47 39.8 1024.03 85.17 1024.03 339.06 1058.47 258.74 1058.47 39.8"/>
  <polygon class="st1" points="1277.41 39.8 1311.85 85.17 1311.85 339.06 1277.41 258.74 1277.41 39.8"/>
  <polygon class="st1" points="1058.47 258.74 1277.41 258.74 1311.85 339.06 1024.03 339.06 1058.47 258.74"/>
  <rect class="st1" x="1384.28" y="39.8" width="218.94" height="218.94" rx="27.29" ry="27.29"/>
  <polygon class="st1" points="1384.28 39.8 1349.84 85.17 1349.84 339.06 1384.28 258.74 1384.28 39.8"/>
  <polygon class="st1" points="1603.22 39.8 1637.66 85.17 1637.66 339.06 1603.22 258.74 1603.22 39.8"/>
  <polygon class="st1" points="1384.28 258.74 1603.22 258.74 1637.66 339.06 1349.84 339.06 1384.28 258.74"/>
  <path class="st0" d="M152.04,169.47l33.22-90.65h10.22l33.52,90.65h-9.13l-21.54-59.26c-1.22-3.29-2.55-7.13-3.98-11.53-1.44-4.4-3.09-9.7-4.96-15.91h1.82c-1.87,6.25-3.53,11.6-4.99,16.06-1.46,4.46-2.74,8.25-3.83,11.38l-21.17,59.26h-9.19ZM167.49,142.52v-7.67h46.05v7.67h-46.05Z"/>
  <path class="st0" d="M489.37,169.47v-90.65h30.84c5.92,0,10.85,1.03,14.78,3.1,3.93,2.07,6.89,4.89,8.88,8.46,1.99,3.57,2.98,7.6,2.98,12.11,0,3.81-.64,7.06-1.92,9.73-1.28,2.68-3.01,4.85-5.2,6.51-2.19,1.66-4.64,2.86-7.36,3.59v.73c2.88.2,5.7,1.23,8.46,3.07,2.76,1.85,5.04,4.42,6.84,7.73,1.8,3.31,2.71,7.23,2.71,11.77s-1.02,8.67-3.07,12.26-5.17,6.42-9.37,8.49c-4.2,2.07-9.54,3.1-16.03,3.1h-32.55ZM498.01,119.77h22.81c3.53,0,6.63-.74,9.31-2.22,2.68-1.48,4.75-3.51,6.21-6.08,1.46-2.58,2.19-5.51,2.19-8.79,0-4.75-1.55-8.62-4.65-11.62-3.1-3-7.72-4.5-13.84-4.5h-22.02v33.22ZM498.01,161.74h23.73c6.89,0,12-1.53,15.33-4.59,3.33-3.06,4.99-6.93,4.99-11.59,0-3.45-.83-6.56-2.5-9.34-1.66-2.78-3.98-4.98-6.97-6.6-2.98-1.62-6.48-2.43-10.49-2.43h-24.09v34.56Z"/>
  <path class="st0" d="M844.01,170.69c-7.67,0-14.46-1.91-20.38-5.72-5.92-3.81-10.57-9.2-13.93-16.15-3.37-6.96-5.05-15.16-5.05-24.61s1.68-17.72,5.05-24.7c3.37-6.98,8.01-12.37,13.93-16.18,5.92-3.81,12.72-5.72,20.38-5.72s14.4,1.91,20.32,5.72c5.92,3.81,10.56,9.21,13.9,16.18,3.35,6.98,5.02,15.21,5.02,24.7s-1.67,17.66-5.02,24.64c-3.35,6.98-7.98,12.36-13.9,16.15-5.92,3.79-12.7,5.69-20.32,5.69ZM844.01,162.6c5.88,0,11.14-1.52,15.79-4.56,4.64-3.04,8.31-7.43,11.01-13.17,2.7-5.74,4.05-12.62,4.05-20.65s-1.35-14.99-4.05-20.75c-2.7-5.76-6.37-10.16-11.01-13.2-4.64-3.04-9.91-4.56-15.79-4.56s-11.21,1.52-15.88,4.56-8.34,7.44-11.04,13.2c-2.7,5.76-4.05,12.68-4.05,20.75s1.35,14.85,4.05,20.59c2.7,5.74,6.38,10.14,11.04,13.2,4.66,3.06,9.96,4.59,15.88,4.59Z"/>
  <path class="st0" d="M1170.88,170.87c-6.81,0-12.82-1.39-18.01-4.17-5.19-2.78-9.24-6.6-12.14-11.47-2.9-4.87-4.35-10.38-4.35-16.55v-59.87h8.64v59.26c0,4.75,1.07,8.98,3.22,12.72,2.15,3.73,5.16,6.67,9.03,8.82,3.87,2.15,8.41,3.22,13.6,3.22s9.72-1.07,13.6-3.22c3.87-2.15,6.88-5.09,9-8.82,2.13-3.73,3.19-7.97,3.19-12.72v-59.26h8.64v59.87c0,6.17-1.45,11.68-4.35,16.55-2.9,4.87-6.94,8.69-12.11,11.47-5.17,2.78-11.16,4.17-17.98,4.17Z"/>
  <path class="st0" d="M1466.2,86.55v-7.73h66.07v7.73h-28.65v82.92h-8.64v-82.92h-28.78Z"/>
</svg>