<?xml version="1.0" encoding="UTF-8"?>
<svg id="Layer_1" xmlns="http://www.w3.org/2000/svg" version="1.1" viewBox="0 0 1543.74 762.38">
  <!-- Generator: Adobe Illustrator 29.7.1, SVG Export Plug-In . SVG Version: 2.1.1 Build 8)  -->
  <defs>
    <style>
      .st0 {
        fill: #231f20;
      }

      .st1 {
        fill: #f4ecdd;
      }

      .st2 {
        fill: none;
        stroke: #231f20;
        stroke-miterlimit: 10;
        stroke-width: 14px;
      }
    </style>
  </defs>
  <path class="st1" d="M643.18,12.3l-171.95,199.59-.21,341.93,171.73,199.24,892.29.45.45-740.6-892.31-.62h0ZM564.71,439.38c-16.88-.19-30.42-14.02-30.26-30.9.1-9.38,11.4-18.8,18.1-24.34-6.58-5.69-17.71-13.03-17.58-22.39.19-16.9,14.04-30.45,30.92-30.28,1.61.02,3.17.21,4.72.47,37.58,5.3,62.25,54.23,62.25,54.23-31.87,56.34-68.17,53.2-68.17,53.2h.02Z"/>
  <path class="st0" d="M788.03,221.95c0-5.57,3.67-8.86,11.03-9.87,7.34-1.01,28.51-1.5,63.49-1.48,31.41,0,51.18.41,59.3,1.17,8.1.76,12.16,2.93,12.16,6.47,0,8.62-6.6,13.44-19.77,14.43-11.15,1.01-19.89,6.33-26.24,15.95-6.35,9.63-11.42,26.49-15.23,50.54-3.81,24.08-7.52,60.44-11.09,109.08-2.56,34.46-3.83,59.3-3.83,74.5,0,23.31,2.25,45.88,6.8,67.67,2.51,14.7,16.96,22.06,43.33,22.08,3.55,0,9.38-.49,17.48-1.5,16.72-2.02,28.14-6.18,34.22-12.53,6.08-6.33,13.19-20.14,21.31-41.41,8.12-23.29,15.97-34.96,23.58-34.96,3.05,0,5.32,2.56,6.84,7.61,1.53,4.06,3.28,23.31,5.3,57.78l3.01,49.41-100.34-.06c-55.24-.04-92.88-1.69-112.9-5.01-20.02-3.3-30.01-9.26-30.01-17.89,0-7.61,4.58-11.4,13.69-11.4,9.63,0,15.46-2.02,17.48-6.08,3.05-6.58,5.09-40.03,6.14-100.34.54-51.7,3.34-102.36,8.45-152.04,3.05-23.81,4.58-39.02,4.6-45.62,0-8.1-2.54-13.93-7.59-17.48-8.1-5.07-15.19-7.61-21.27-7.61-6.6,0-9.87-3.81-9.87-11.4h-.07Z"/>
  <path class="st0" d="M1132.8,162.34c.39-2.91-4.35-8.95-14.22-18.12s-14.57-15.46-14.12-18.84c.58-4.35,3.52-6.18,8.84-5.48.97.12,5.26,1.2,12.86,3.17,17.56,4.78,31.93,7.89,43.06,9.38,14.99,1.98,22.26,4.68,21.83,8.04-.45,3.38-6.7,9.71-18.74,18.94-9.85,7.56-20.63,23-32.32,46.3-11.69,23.31-28.65,63.28-50.89,119.91-14.92,38.4-26.1,63.49-33.56,75.3s-18.12,21.73-31.97,29.74c-17.5,9.5-37.37,12.78-59.61,9.85-14.04-1.86-25.33-5.81-33.87-11.85-8.55-6.06-12.24-13.44-11.11-22.14,2.23-16.94,9.87-24.53,22.94-22.82,9.67,1.28,19.13,7.94,28.36,19.99,8.27,11.91,15.32,18.26,21.11,19.03,5.32.7,15.36-4.49,30.12-15.58s22.61-20.26,23.56-27.52c1.28-9.67-6.14-41.16-22.22-94.49-17.77-55.51-27.72-95.69-29.85-120.59-3.24-24.06-7.71-40.38-13.46-49.02-6.16-9.17-9.01-15.71-8.49-19.58.45-3.38,3.57-4.7,9.38-3.94.97.12,5.26,1.2,12.86,3.17,3.79.99,10.8,2.91,21.03,5.73,10.2,2.82,17.21,4.74,21.03,5.73,14.8,3.42,21.73,8.78,20.78,16.04-.58,4.35-4.86,6.99-12.86,7.89-6.97.56-10.92,4.47-11.89,11.73-.89,6.78.21,17.01,3.34,30.71,3.28,16.18,10.31,41.23,21.09,75.13,10.78,33.91,17.13,51,19.07,51.24,1.46.19,11.36-21.75,29.72-65.84,18.37-44.09,27.79-67.82,28.22-71.22v-.02l-.02.03h0Z"/>
  <path class="st0" d="M1200.7,250.36c30.71-.33,48.23-.21,52.54.37,2.58.35,3.81.95,3.71,1.81-.16,1.3-6.62,13.58-19.33,36.9-20.57,36.3-33.93,77.71-40.07,124.23-.91,6.91-1.79,16.86-2.64,29.89-3.3,48.21-2.35,72.66,2.8,73.34,2.14.29,5.92-3.38,11.32-11.01,6.37-8.37,20.16-23.19,41.37-44.5,18.18-18.2,27.56-29.46,28.12-33.76.23-1.71-.8-3.83-3.11-6.33-5.09-4.62-10.43-7.3-16.04-8.04-3.88-.52-6.72-2.21-8.53-5.07-1.81-2.87-2.51-5.81-2.12-8.82s2.04-5.42,4.91-7.24c3.73-1.69,20.67-.56,50.83,3.42l16.8,2.23c27.02,4.45,43.91,7.67,50.67,9.65,6.74,2,9.87,4.93,9.36,8.8-.68,5.17-6.86,8.74-18.51,10.7-17.97,3.32-32.94,7.94-44.87,13.79-11.96,5.87-24.65,14.94-38.11,27.19l-27.5,23.97,21.17,23.83c15.5,18.72,35,39.45,58.5,62.29,23.5,22.82,40.32,37.33,50.48,43.47,12.99,7.85,24.22,12.41,33.7,13.65,9.89,1.3,14.57,4.12,14.02,8.43-.58,4.31-3.67,7.07-9.32,8.31s-16.76,1.63-33.35,1.2l-39.29-1.24-49.88-45.37c-39.1-35.83-60.77-56.01-64.99-60.52-7.34-7.54-12.94-11.56-16.82-12.08-2.16-.29-3.96.14-5.42,1.26-4.27,2.51-6.76,6.35-7.44,11.5-1.03,7.75,2.35,22.01,10.14,42.75,10.95,29.93,23.95,45.91,39.04,47.88l3.24.43c.87.12,1.73.12,2.62,0,.89-.1,1.55-.12,1.98-.06,5.17.68,9.42,2.45,12.78,5.3,3.34,2.87,4.82,5.79,4.43,8.8-.35,2.58-2.23,3.65-5.69,3.19-.43-.06-17.07,3.88-49.88,11.83-32.84,7.94-51.18,11.65-55.06,11.15l-.64-.08c-2.78-2.12-4.02-4.47-3.67-7.05.62-4.74,4.93-9.21,12.94-13.42l11.54-7.69-10.49-25.04c-14.33-34.32-23.48-63.69-27.48-88.1-4.02-24.41-3.85-53,.47-85.73,2.1-15.93,5.13-33.93,9.11-54.03,8.64-42.26,16.02-71.53,22.12-87.81,3.61-7.42,5.65-12.84,6.1-16.28.52-3.88-1.75-8.33-6.78-13.38-6.53-6.99-12.16-10.8-16.9-11.44-4.74-.62-6.31-3.67-4.7-9.17,1.11-5.11,15.07-7.87,41.84-8.29v-.02h-.02,0Z"/>
  <path class="st0" d="M565.31,328c-1.77-.31-3.55-.51-5.38-.56-19.25-.35-35.18,14.98-35.53,34.23-.18,10.7,12.41,19.16,19.87,25.7-7.69,6.25-20.67,16.9-20.85,27.6-.35,19.25,14.98,35.18,34.23,35.53,0,0,41.36,3.88,78.2-60.1,0,0-27.72-56.03-70.54-62.41h0Z"/>
  <path class="st2" d="M534.45,354.87S406.73,121.75,198.74,82.3C-9.25,42.84-11.63,457.5,534.45,354.87Z"/>
</svg>